<?xml version="1.0" standalone="no"?>
<!DOCTYPE svg PUBLIC "-//W3C//DTD SVG 20010904//EN"
 "http://www.w3.org/TR/2001/REC-SVG-20010904/DTD/svg10.dtd">
<svg version="1.0" xmlns="http://www.w3.org/2000/svg"
 width="511.000000pt" height="528.000000pt" viewBox="0 0 511.000000 528.000000"
 preserveAspectRatio="xMidYMid meet">
<metadata>
Created by potrace 1.16, written by Peter Selinger 2001-2019
</metadata>
<g transform="translate(0.000000,528.000000) scale(0.100000,-0.100000)"
fill="#000000" stroke="none">
<path d="M2478 4338 l-86 -52 41 -60 c22 -34 53 -78 68 -99 l28 -39 61 128
c33 70 59 128 58 129 -26 16 -76 45 -79 44 -2 0 -43 -23 -91 -51z"/>
<path d="M2615 4190 c-49 -108 -62 -129 -77 -124 -10 3 -18 1 -18 -5 0 -26
-19 -4 -85 94 -38 58 -74 105 -79 105 -5 0 -193 -107 -417 -237 l-408 -238 -1
-61 0 -60 252 -307 c138 -169 255 -304 259 -300 4 5 110 226 235 493 125 267
229 487 231 489 2 3 9 -1 15 -7 8 -8 14 -8 22 3 9 12 43 -32 171 -220 88 -129
160 -235 161 -235 1 0 52 93 114 208 62 114 121 221 131 238 l19 32 -225 131
c-124 72 -228 131 -232 131 -5 0 -35 -59 -68 -130z"/>
<path d="M3147 3998 c-13 -24 -73 -133 -132 -243 -60 -110 -110 -202 -111
-204 -2 -2 -10 2 -19 9 -10 8 -15 9 -15 1 0 -6 -4 -11 -8 -11 -4 0 -80 104
-167 230 -87 127 -162 227 -166 223 -4 -5 -110 -227 -235 -496 -195 -416 -230
-486 -246 -481 -19 6 -22 -3 -12 -30 6 -15 7 -15 18 -1 10 13 35 -13 159 -165
137 -168 159 -202 139 -213 -4 -3 -72 75 -152 173 -80 99 -148 179 -151 180
-6 0 -259 -536 -259 -550 0 -9 322 -200 338 -200 6 0 56 86 113 190 57 105
107 190 111 190 27 0 9 -48 -83 -215 -58 -107 -98 -190 -93 -195 11 -11 386
-230 394 -230 15 0 203 117 201 125 -1 6 -90 117 -197 248 -106 130 -194 244
-194 252 0 7 4 16 8 19 4 2 101 -110 216 -249 l208 -254 37 19 c20 11 103 59
185 107 l150 88 97 180 c137 252 128 238 145 224 10 -8 14 -8 14 0 0 26 19 6
79 -80 34 -49 68 -88 74 -86 9 3 13 69 14 238 l3 234 -79 -144 c-46 -83 -81
-138 -86 -132 -5 9 -10 9 -21 0 -8 -6 -16 -10 -18 -8 -1 2 -119 174 -261 382
-142 207 -261 377 -265 377 -3 0 -113 -198 -244 -440 -131 -242 -243 -440
-248 -440 -5 0 -11 6 -14 14 -4 10 459 878 483 906 2 2 8 -2 14 -10 8 -13 10
-13 19 0 9 13 11 13 20 0 33 -55 512 -746 519 -748 4 -1 46 69 94 157 l87 159
0 344 0 343 -178 103 c-97 56 -196 113 -219 127 l-41 25 -25 -42z"/>
<path d="M1530 3083 l0 -520 106 -62 c58 -33 109 -61 113 -61 4 0 67 128 140
284 l133 283 -232 284 c-128 156 -239 291 -246 299 -12 12 -14 -66 -14 -507z"/>
<path d="M3350 2548 c-46 -84 -90 -164 -99 -178 -9 -13 -11 -22 -6 -18 187
107 296 172 299 177 4 5 -89 149 -107 168 -3 2 -42 -65 -87 -149z"/>
<path d="M4150 1236 l0 -236 40 0 40 0 -2 233 -3 232 -37 3 -38 3 0 -235z"/>
<path d="M980 1436 c0 -8 -81 -401 -86 -418 -4 -15 1 -18 34 -18 39 0 40 0 46
45 l7 45 55 0 c49 0 54 -2 54 -22 0 -54 11 -68 49 -68 l37 0 -45 218 -46 217
-53 3 c-28 2 -52 1 -52 -2z"/>
<path d="M2030 1220 l0 -220 35 0 35 0 0 79 0 79 64 4 c93 6 96 10 96 139 0
136 -3 139 -137 139 l-93 0 0 -220z"/>
<path d="M1274 1326 c-17 -13 -19 -29 -22 -145 -4 -130 -3 -130 23 -157 24
-24 31 -26 97 -22 79 4 98 19 98 75 0 31 -2 33 -34 33 -28 0 -35 -4 -38 -22
-2 -18 -11 -24 -35 -26 l-33 -3 0 111 0 111 33 -3 c24 -2 33 -8 35 -25 3 -19
10 -23 38 -23 32 0 34 2 34 33 0 18 -7 43 -16 55 -13 19 -24 22 -88 22 -46 0
-79 -5 -92 -14z"/>
<path d="M1576 1318 c-13 -17 -16 -51 -16 -148 0 -159 2 -163 98 -168 65 -4
73 -2 96 21 17 17 26 37 26 57 0 28 -2 30 -40 30 -36 0 -40 -2 -40 -25 0 -21
-5 -25 -30 -25 l-30 0 0 110 0 110 30 0 c25 0 30 -4 30 -25 0 -23 4 -25 41
-25 l42 0 -6 42 c-8 57 -26 68 -113 68 -64 0 -75 -3 -88 -22z"/>
<path d="M2360 1170 l0 -170 35 0 35 0 0 124 c0 132 8 156 51 156 14 0 19 7
19 30 0 35 -22 40 -52 13 -17 -15 -18 -15 -18 0 0 13 -9 17 -35 17 l-35 0 0
-170z"/>
<path d="M2597 1322 c-14 -15 -17 -42 -17 -150 0 -165 5 -172 108 -172 110 0
112 3 112 169 0 170 -1 171 -112 171 -60 0 -78 -4 -91 -18z m131 -149 l3 -113
-41 0 -40 0 0 108 c0 60 3 112 7 116 4 4 21 6 38 4 l30 -3 3 -112z"/>
<path d="M2900 1125 l0 -215 40 0 40 0 0 55 c0 52 1 55 19 45 31 -16 79 -12
101 10 18 18 20 33 20 148 0 154 -8 172 -74 172 -23 0 -47 -5 -54 -12 -9 -9
-12 -9 -12 0 0 7 -16 12 -40 12 l-40 0 0 -215z"/>
<path d="M3237 1322 c-14 -15 -17 -42 -17 -155 0 -163 3 -167 112 -167 104 0
108 7 108 173 0 165 -1 167 -112 167 -60 0 -78 -4 -91 -18z m131 -149 l3 -113
-41 0 -40 0 0 108 c0 60 3 112 7 116 4 4 21 6 38 4 l30 -3 3 -112z"/>
<path d="M3550 1320 c-15 -15 -20 -33 -20 -74 0 -70 19 -93 85 -103 46 -8 50
-11 53 -39 3 -34 -19 -60 -43 -50 -8 3 -15 15 -15 26 0 17 -6 20 -41 20 -41 0
-41 0 -35 -32 10 -53 40 -71 113 -66 35 2 68 9 74 15 15 15 23 84 15 126 -7
38 -33 54 -96 59 -34 3 -35 4 -35 43 0 36 3 40 27 43 21 3 27 -1 30 -20 2 -18
10 -24 36 -26 31 -3 32 -2 32 32 0 52 -20 66 -96 66 -51 0 -68 -4 -84 -20z"/>
<path d="M3846 1318 c-13 -18 -16 -51 -16 -150 0 -115 2 -130 20 -148 22 -22
70 -26 101 -10 13 7 19 7 19 0 0 -5 18 -10 40 -10 l40 0 0 170 0 170 -40 0
c-24 0 -40 -5 -40 -12 0 -9 -3 -9 -12 0 -7 7 -31 12 -54 12 -33 0 -47 -5 -58
-22z"/>
</g>
</svg>
